<svg width="17" height="22" viewBox="0 0 17 22" fill="none" xmlns="http://www.w3.org/2000/svg">
<path d="M16.5939 18.9894L10.7906 2.02714C10.3735 0.835106 9.77827 0 8.35024 0C6.92177 0 6.32623 0.864894 5.93886 2.02705L0.13579 18.9893C0.0760526 19.1386 0.0473633 19.4966 0.0473633 19.6457C0.0473633 20.7781 1.02889 21.5535 2.18919 21.5535C2.90385 21.5535 3.8566 21.0166 4.15354 20.1528C4.15354 20.1528 8.23068 6.64783 8.35024 5.72371C8.46902 6.64783 12.5167 20.1528 12.5167 20.1528C12.8144 20.9871 13.766 21.5535 14.54 21.5535C15.7599 21.5535 16.6829 20.7781 16.6829 19.6457C16.683 19.4966 16.6536 19.1387 16.5939 18.9894Z" fill="black"/>
</svg>
