<svg width="14" height="22" viewBox="0 0 14 22" fill="none" xmlns="http://www.w3.org/2000/svg">
<path d="M11.4668 21.285H3.58012C2.12192 21.285 0.81311 20.7779 0.81311 19.1685V2.38506C0.81311 1.34214 1.79446 0.268555 3.10458 0.268555H11.1692C12.3007 0.268555 13.2526 1.16306 13.2526 2.20616C13.2526 3.27992 12.3007 4.05449 11.1692 4.05449H4.97946V8.85382H10.6043C11.6455 8.85382 12.6579 9.65826 12.6579 10.7321C12.6579 11.8046 11.7645 12.6398 10.6043 12.6398H4.97946V17.4979H11.4668C12.5684 17.4979 13.5503 18.3331 13.5503 19.3473C13.5503 20.4212 12.5986 21.285 11.4668 21.285Z" fill="black"/>
</svg>
