<svg width="15" height="22" viewBox="0 0 15 22" fill="none" xmlns="http://www.w3.org/2000/svg">
<path d="M8.81029 13.1752C8.18501 12.9078 7.44174 12.6398 6.63778 12.3714C3.72172 11.4765 0.566461 10.4932 0.566461 6.17061C0.566461 2.32537 3.24505 0 7.47157 0C9.22733 0 13.4525 0.447341 13.4525 2.68335C13.4525 3.66669 12.6794 4.56137 11.37 4.56137C10.8341 4.56137 10.4172 4.38239 9.91112 4.23345C9.3461 4.02432 8.69144 3.78611 7.65 3.78611C6.1911 3.78611 4.8222 4.29302 4.8222 6.05129C4.8222 7.36256 5.5667 7.81008 6.07207 8.04855C6.84603 8.43632 7.56053 8.67488 8.21494 8.85387C11.1318 9.77755 14.3161 10.7916 14.3161 15.0233C14.3161 19.1685 11.1616 21.5535 6.90543 21.5535C4.70308 21.5535 0.536377 20.7781 0.536377 18.6901C0.536377 17.7366 1.39991 16.812 2.50056 16.812C2.94733 16.812 3.42357 16.9611 3.98859 17.1702C4.70308 17.4088 5.65591 17.7668 6.93524 17.7668C8.9889 17.7668 10.0301 16.8419 10.0301 15.2025C10.0303 13.8611 9.3461 13.4141 8.81029 13.1752Z" fill="black"/>
</svg>
